<svg width="153" height="155" viewBox="0 0 153 155" fill="none" xmlns="http://www.w3.org/2000/svg">
<path d="M147.482 143.676C146.817 144.71 145.858 145.014 144.65 145.014C99.0398 144.996 53.4298 144.999 7.81969 144.996C5.73468 144.996 5.05826 144.368 5.05454 142.424C5.04711 130.189 5.01366 117.95 5.06569 105.715C5.09914 97.7652 12.458 91.8892 19.8429 93.9036C24.1095 95.0669 26.6926 98.1591 28.4208 102.028C29.8703 105.28 31.1971 108.592 32.5722 111.877C33.4047 113.867 34.91 114.863 37.0879 114.865C41.5367 114.865 45.9891 114.802 50.4379 114.888C55.6151 114.988 58.9601 119.563 57.3099 124.198C57.0646 124.889 56.6744 125.524 56.2915 126.301H96.2041C96.0406 125.974 95.8807 125.625 95.6986 125.287C93.2717 120.797 96.0777 115.267 101.173 114.995C106.35 114.72 111.554 114.836 116.742 114.906C118.195 114.925 118.931 114.542 119.474 113.126C120.875 109.454 122.428 105.834 124.008 102.233C125.77 98.2112 128.401 95.0112 132.868 93.8665C139.157 92.2572 145.679 96.4606 147.188 103.006C147.259 103.31 147.385 103.6 147.486 103.894V143.676H147.482ZM123.268 130.412H29.3091V141H123.268V130.412ZM25.3026 141.03C25.3026 136.697 25.3063 132.53 25.2914 128.36C25.2914 128.104 25.2319 127.736 25.061 127.606C22.6712 125.807 22.11 122.964 21.0025 120.455C19.4155 116.857 17.9363 113.215 16.4533 109.573C15.9739 108.398 16.4348 107.321 17.4866 106.938C18.6461 106.518 19.4638 106.993 20.0101 108.023C20.1625 108.309 20.2591 108.621 20.3818 108.919C22.2215 113.312 24.0649 117.708 25.9009 122.101C26.9416 124.584 27.5623 124.997 30.3088 124.997C35.0809 124.997 39.853 124.997 44.6251 124.997C46.6656 124.997 48.706 125.041 50.7427 124.974C52.3445 124.919 53.5301 123.819 53.7345 122.38C53.9427 120.905 53.1919 119.47 51.8502 119.032C51.2072 118.82 50.4825 118.801 49.7949 118.801C44.2795 118.783 38.7678 118.768 33.2524 118.805C31.8029 118.816 30.9481 118.247 30.4017 116.894C28.7441 112.777 27.0791 108.655 25.258 104.607C24.4886 102.902 23.448 101.274 22.2884 99.8019C21.1437 98.345 19.4898 97.557 17.572 97.4641C12.8668 97.2374 8.98299 100.772 8.96069 105.507C8.90494 117.091 8.9421 128.676 8.94582 140.257C8.94582 140.513 9.03874 140.77 9.08705 141.026H25.2914L25.3026 141.03ZM143.568 141.034V139.413C143.568 130.98 143.568 122.547 143.568 114.114C143.568 111.197 143.617 108.276 143.546 105.358C143.461 101.894 141.164 98.8839 137.934 97.8284C134.66 96.758 131.608 97.7466 129.371 100.75C128.579 101.813 127.933 103.02 127.405 104.243C125.587 108.447 123.815 112.669 122.101 116.917C121.551 118.281 120.685 118.827 119.247 118.812C114.891 118.771 110.535 118.794 106.179 118.801C104.604 118.801 103.024 118.757 101.456 118.864C99.943 118.968 98.88 120.117 98.7574 121.566C98.6236 123.135 99.4524 124.413 100.965 124.826C101.534 124.982 102.151 125 102.749 125C109.234 125.012 115.724 125.008 122.209 125.008C124.941 125.008 125.576 124.592 126.617 122.101C128.401 117.835 130.181 113.564 131.965 109.298C132.106 108.956 132.255 108.618 132.407 108.279C133.013 106.967 133.942 106.499 135.039 106.945C136.113 107.376 136.537 108.465 136.013 109.729C133.924 114.772 131.805 119.801 129.687 124.833C129.508 125.257 129.326 125.785 128.977 126.008C126.84 127.401 127.189 129.527 127.204 131.582C127.227 134.318 127.204 137.05 127.215 139.785C127.215 140.186 127.271 140.584 127.308 141.045H143.568V141.034Z" fill="white"/>
<path d="M59.2426 18.3971C60.4356 13.9669 63.1078 10.9491 67.6012 9.76718C68.6604 9.48843 69.7977 9.39552 70.9015 9.3918C83.6978 9.36578 96.4903 9.36578 109.287 9.38065C116.452 9.38808 121.235 14.1713 121.261 21.3258C121.28 26.425 121.265 31.5241 121.265 36.6233C121.265 43.919 118.374 47.6876 111.204 49.5571C111.561 52.1289 111.884 54.7343 112.297 57.321C112.472 58.4137 112.453 59.3837 111.438 60.0267C110.361 60.7106 109.435 60.2832 108.528 59.5621C104.607 56.4514 100.642 53.3963 96.7579 50.2409C95.8027 49.4679 94.8104 49.4567 93.766 49.5682C93.4947 49.5979 93.1602 50.0625 93.045 50.3933C91.1049 55.9013 87.3512 58.6181 81.5459 58.633C73.7559 58.6479 65.9696 58.6107 58.1796 58.6739C57.3397 58.6813 56.3585 59.0307 55.6895 59.5398C51.7796 62.5131 47.933 65.5719 44.09 68.6306C43.1906 69.3442 42.2837 69.8348 41.1836 69.2179C40.0761 68.5935 40.0463 67.5677 40.2322 66.4267C40.6373 63.8734 40.9606 61.3089 41.3249 58.685C40.5555 58.4918 39.8828 58.3543 39.2324 58.1536C34.5346 56.7078 31.3532 52.508 31.2826 47.4014C31.2008 41.5627 31.1897 35.7165 31.2826 29.8777C31.3867 23.3699 36.2034 18.6201 42.7186 18.5346C48.1411 18.464 53.5673 18.5049 58.9898 18.4937C59.0344 18.4937 59.0753 18.4603 59.2463 18.3971H59.2426ZM107.477 53.3963C107.231 51.538 107.023 50.0031 106.826 48.4644C106.533 46.1452 107.176 45.3833 109.465 45.3164C114.319 45.1789 117.073 42.3692 117.084 37.5079C117.095 32.1337 117.095 26.7557 117.084 21.3815C117.073 16.5016 114.178 13.5581 109.32 13.5544C96.5312 13.5358 83.7424 13.5358 70.9536 13.5544C66.1629 13.5618 63.2342 16.5128 63.2268 21.2738C63.2156 26.648 63.2193 32.0259 63.2268 37.4001C63.2305 42.4807 66.0588 45.309 71.1505 45.3127C78.9368 45.3201 86.7194 45.3685 94.5056 45.2755C96.442 45.2532 97.9546 45.7736 99.419 47.0149C101.95 49.1594 104.618 51.1441 107.48 53.3963H107.477ZM59.3875 42.1127C59.2203 39.1357 59.0605 36.3 58.8932 33.3527C58.3432 33.3527 57.8377 33.3527 57.336 33.3527C53.3034 33.3527 49.2709 33.3638 45.2422 33.3453C43.6106 33.3378 42.7855 32.6094 42.8301 31.3272C42.871 30.1155 43.6737 29.4726 45.2644 29.4651C49.3416 29.4503 53.4224 29.4651 57.4995 29.454C57.9864 29.454 58.4732 29.4094 58.9341 29.3834V22.7307C53.2143 22.7307 47.6096 22.5894 42.0124 22.779C38.1992 22.9091 35.501 25.9938 35.4601 29.9186C35.3969 35.709 35.408 41.5032 35.4601 47.2974C35.4898 50.4751 37.3295 53.0953 40.143 54.0244C41.0907 54.3366 42.1388 54.3998 43.146 54.4518C45.2756 54.5633 45.9966 55.3475 45.7253 57.4214C45.5172 59.0232 45.2979 60.6214 45.0526 62.4722C45.6064 62.0783 45.9818 61.833 46.3348 61.558C48.8138 59.6105 51.3151 57.6964 53.742 55.6894C54.805 54.8123 55.8976 54.4332 57.2839 54.4444C65.1148 54.4964 72.9494 54.4704 80.7802 54.4667C81.5682 54.4667 82.3598 54.4667 83.1403 54.3886C85.7791 54.1248 88.1688 52.1104 88.7672 49.5273C88.2357 49.5273 87.7489 49.5273 87.262 49.5273C81.8878 49.5273 76.5099 49.5087 71.1357 49.5348C68.1104 49.5496 65.401 48.758 63.0038 46.8402C62.424 46.3757 61.5543 46.056 60.811 46.0486C55.5743 45.9817 50.3376 46.0226 45.1009 46.004C43.6254 46.0003 42.7892 45.2012 42.8301 43.9673C42.871 42.778 43.6477 42.1276 45.1195 42.1239C49.4308 42.1127 53.7383 42.1202 58.0495 42.1202C58.5438 42.1202 59.0419 42.1202 59.3912 42.1202L59.3875 42.1127Z" fill="white"/>
<path d="M84.8648 94.1674C85.0767 97.5495 84.8574 100.675 82.2483 103.017C80.6353 104.466 78.7027 105.202 76.5508 105.254C73.6593 105.325 71.2063 104.325 69.3183 102.076C67.408 99.8018 67.5343 97.0218 67.5009 94.1303C64.0779 94.3496 60.8705 94.0931 58.555 91.2834C57.1464 89.5737 56.3214 87.5556 56.5741 85.374C56.7711 83.6792 57.3174 81.951 58.0682 80.4123C58.8561 78.7956 60.3762 77.6918 62.1415 77.2718C63.8289 76.8741 65.598 76.8035 67.5641 76.5619C67.3485 73.1426 67.6607 69.7643 70.7975 67.4488C72.6298 66.096 74.6962 65.5757 76.9485 65.7429C79.643 65.9399 81.8284 67.092 83.4302 69.2848C85.0358 71.485 84.9503 74.0644 84.9057 76.8221C88.5182 76.6139 91.9152 76.9001 94.2381 80.0369C95.5872 81.8581 96.1744 83.9356 95.9812 86.1805C95.7544 88.8416 94.6506 91.0678 92.443 92.6734C90.2316 94.2789 87.6634 94.212 84.8685 94.1712L84.8648 94.1674ZM85.3851 90.2613C86.1247 90.2613 86.8681 90.2873 87.6077 90.2576C90.2799 90.1535 92.0453 88.3101 92.101 85.5895C92.1568 82.8615 90.4806 80.9178 87.8269 80.7394C86.3515 80.6427 84.8611 80.7059 83.3819 80.6688C81.702 80.6279 81.033 79.9515 81.007 78.2864C80.9847 76.8518 81.0404 75.4135 80.981 73.9789C80.8769 71.381 79.0372 69.6751 76.3538 69.623C73.5441 69.5673 71.6337 71.184 71.4776 73.8376C71.3922 75.3169 71.4628 76.8035 71.4256 78.2827C71.381 79.9886 70.738 80.6279 69.0433 80.6688C67.5603 80.7059 66.0737 80.639 64.5982 80.7357C62.0152 80.9029 60.391 82.8021 60.4096 85.5115C60.4282 88.2543 62.1787 90.1609 64.8138 90.2539C66.1555 90.3022 67.5009 90.2613 68.8463 90.2724C70.7603 90.2873 71.4033 90.9303 71.433 92.8778C71.4516 94.2195 71.4033 95.5686 71.4628 96.9103C71.5854 99.6531 73.5143 101.411 76.2832 101.374C79.0595 101.337 80.9066 99.5379 80.9921 96.7765C81.0144 96.0815 80.9996 95.3865 80.9996 94.6915C80.9996 91.7455 82.4602 90.27 85.3814 90.265L85.3851 90.2613Z" fill="#E9501D"/>
<path d="M17.3528 90.6218C10.9899 90.6367 5.86104 85.5524 5.82759 79.197C5.79043 72.7747 10.9119 67.5975 17.3193 67.5789C23.671 67.5603 28.9337 72.8267 28.8891 79.1635C28.8445 85.4929 23.697 90.6069 17.3528 90.6255V90.6218ZM9.7263 79.0706C9.70772 83.315 13.0304 86.6859 17.2636 86.7231C21.5191 86.7603 25.0164 83.3001 24.9904 79.0781C24.9606 74.8969 21.5302 71.485 17.3416 71.4739C13.1456 71.4627 9.74489 74.856 9.73002 79.0706H9.7263Z" fill="white"/>
<path d="M135.147 90.6218C128.806 90.592 123.655 85.4594 123.633 79.1412C123.61 72.8007 128.884 67.538 135.225 67.5788C141.643 67.6197 146.742 72.7932 146.694 79.2192C146.65 85.5746 141.506 90.6515 135.147 90.6255V90.6218ZM142.795 79.1783C142.821 74.9414 139.51 71.5445 135.292 71.4738C131.073 71.4032 127.539 74.882 127.535 79.1077C127.535 83.2815 130.958 86.7082 135.15 86.723C139.384 86.7416 142.773 83.4004 142.799 79.1783H142.795Z" fill="white"/>
<path d="M90.1722 32.944C95.7322 32.944 101.288 32.944 106.849 32.944C107.265 32.944 107.692 32.9068 108.094 32.9886C109.06 33.1893 109.651 33.7802 109.688 34.806C109.725 35.895 109.138 36.5454 108.12 36.7907C107.722 36.8873 107.291 36.8427 106.875 36.8427C95.7099 36.8427 84.5489 36.8427 73.3843 36.8427C72.968 36.8427 72.5332 36.8836 72.1392 36.7833C71.1135 36.5268 70.5522 35.843 70.6117 34.7651C70.6675 33.7505 71.2658 33.1559 72.247 32.9812C72.6521 32.9106 73.0795 32.9403 73.4958 32.9403C79.0558 32.9403 84.6121 32.9403 90.1722 32.9403V32.944Z" fill="white"/>
<path d="M90.1608 20.3113C95.6725 20.3113 101.181 20.3113 106.692 20.3113C107.201 20.3113 107.844 20.1775 108.186 20.4302C108.788 20.8725 109.565 21.5526 109.595 22.1622C109.625 22.7791 108.933 23.5522 108.361 24.0242C108.008 24.3178 107.298 24.2211 106.748 24.2211C95.68 24.2286 84.6119 24.2286 73.5476 24.2211C72.9976 24.2211 72.284 24.3141 71.9346 24.0205C71.366 23.5447 70.6784 22.7642 70.7119 22.1473C70.7453 21.534 71.5332 20.8651 72.1353 20.4265C72.481 20.1775 73.1202 20.3113 73.6294 20.3113C79.1411 20.3076 84.6491 20.3113 90.1608 20.3113Z" fill="white"/>
</svg>
