<svg width="153" height="155" viewBox="0 0 153 155" fill="none" xmlns="http://www.w3.org/2000/svg">
<path d="M21.3629 129.129C21.3629 125.926 21.3629 122.923 21.3629 119.916C21.3629 117.407 21.545 117.225 24.0463 117.225C25.0609 117.225 26.0756 117.225 27.1831 117.225V72.6818C26.306 72.6818 25.44 72.6818 24.5741 72.6818C22.4358 72.6818 21.3654 71.5879 21.3629 69.4001C21.3629 68.5787 21.3629 67.7536 21.3629 66.765C20.0621 66.765 18.9137 66.7687 17.769 66.765C16.8844 66.7613 15.9441 66.8282 15.5465 65.7689C15.1413 64.6986 15.8921 64.1559 16.5908 63.5947C35.1998 48.706 53.8088 33.8174 72.4178 18.925C73.1797 18.3154 73.9825 17.7542 74.6849 17.0815C75.7665 16.052 76.6956 16.1449 77.8366 17.0704C83.8501 21.9465 89.9118 26.7633 95.9587 31.6023C109.208 42.2057 122.454 52.8129 135.704 63.4163C135.812 63.5018 135.923 63.5873 136.035 63.6728C136.722 64.2043 137.473 64.877 136.912 65.7355C136.566 66.2633 135.693 66.6312 135.009 66.7167C133.79 66.8728 132.537 66.7613 131.147 66.7613C131.147 68.0324 131.147 69.1362 131.147 70.2363C131.14 72.3808 130.858 72.6707 128.765 72.6744C127.658 72.6744 126.546 72.6744 125.335 72.6744V117.218C126.602 117.218 127.884 117.207 129.167 117.218C130.705 117.236 131.133 117.653 131.14 119.221C131.159 121.956 131.144 124.696 131.147 127.431C131.147 127.929 131.147 128.431 131.147 129.118C132.578 129.118 133.861 129.103 135.143 129.122C136.615 129.144 137.094 129.579 137.12 130.999C137.153 132.716 137.131 134.433 137.127 136.146C137.127 137.406 136.485 138.02 135.232 138.02C134.86 138.02 134.489 138.02 134.121 138.02C95.5388 138.02 56.9568 138.02 18.3711 138.02C15.5873 138.02 15.3755 137.808 15.3755 135.02C15.3755 133.675 15.3755 132.329 15.3755 130.984C15.3755 129.743 15.933 129.081 17.2338 129.111C18.5272 129.137 19.8205 129.118 21.3592 129.118L21.3629 129.129ZM76.2608 19.646C57.9231 34.3228 39.6932 48.9179 21.296 63.6468H131.233C112.795 48.8882 94.591 34.3191 76.2645 19.646H76.2608ZM36.2739 72.6818V117.225C37.6156 117.225 38.8607 117.214 40.1057 117.225C41.6481 117.244 42.0644 117.664 42.0867 119.221C42.1052 120.496 42.0867 121.771 42.0867 123.042H50.9954C50.9954 121.659 50.9916 120.369 50.9954 119.08C51.0028 117.838 51.5826 117.192 52.8722 117.218C54.1991 117.244 55.5259 117.225 56.8676 117.225V72.6818C55.563 72.6818 54.3589 72.6892 53.1547 72.6818C51.4599 72.6707 51.0102 72.2321 50.9916 70.5522C50.9768 69.322 50.9916 68.0918 50.9916 66.8616H42.083C42.083 68.2405 42.0644 69.5301 42.0867 70.8198C42.109 72.0909 41.5217 72.7078 40.2395 72.6893C38.9461 72.6707 37.6565 72.6855 36.2665 72.6855L36.2739 72.6818ZM95.6354 72.6818V117.225C96.9474 117.225 98.1515 117.218 99.352 117.225C101.036 117.236 101.482 117.675 101.504 119.366C101.519 120.596 101.504 121.826 101.504 123.038H110.413C110.413 121.652 110.431 120.362 110.409 119.072C110.387 117.794 110.985 117.195 112.263 117.218C113.59 117.24 114.913 117.222 116.225 117.222V72.6781C114.88 72.6781 113.635 72.6893 112.386 72.6781C110.847 72.6595 110.435 72.2395 110.413 70.6749C110.394 69.4001 110.413 68.129 110.413 66.8653H101.5C101.5 68.2516 101.508 69.5413 101.5 70.8347C101.493 72.0797 100.891 72.7153 99.6084 72.6893C98.3151 72.6632 97.018 72.6818 95.6317 72.6818H95.6354ZM86.5149 117.225V72.6818C85.2587 72.6818 84.1065 72.6855 82.9544 72.6818C81.0924 72.6744 80.7133 72.2841 80.7058 70.3738C80.7021 69.1919 80.7058 68.0063 80.7058 66.8505H71.8009C71.8009 68.1253 71.8083 69.322 71.8009 70.5188C71.7897 72.2321 71.366 72.6669 69.6861 72.6818C68.4522 72.693 67.2183 72.6818 65.9918 72.6818V117.225C67.2034 117.225 68.3073 117.225 69.4148 117.225C71.4627 117.229 71.7971 117.571 71.8009 119.674C71.8009 120.812 71.8009 121.945 71.8009 123.057H80.7095C80.7095 121.733 80.6984 120.492 80.7095 119.247C80.7244 117.712 81.1778 117.248 82.6793 117.229C83.9244 117.214 85.1695 117.229 86.5149 117.229V117.225ZM134.095 132.151H18.464V134.95H134.095V132.151ZM24.3622 129.022H128.126V126.245H24.3659V129.022H24.3622ZM62.803 117.181V72.7785H60.0044V117.181H62.803ZM89.6963 72.7264V117.136H92.506V72.7264H89.6963ZM30.3608 72.7524V117.155H33.1111V72.7524H30.3608ZM119.41 72.7227V117.114H122.124V72.7227H119.41ZM39.0948 66.8579H24.3585V69.5933H39.0948V66.8579ZM128.152 66.8579H113.416V69.5933H128.152V66.8579ZM24.3585 123.053H39.0985V120.31H24.3585V123.053ZM128.152 120.314H113.416V123.049H128.152V120.314ZM54.0653 66.817V69.6156H68.7086V66.817H54.0653ZM98.4823 66.8579H83.8241V69.5747H98.4823V66.8579ZM68.7421 120.329H54.0727V123.06H68.7421V120.329ZM98.4823 120.31H83.8241V123.027H98.4823V120.31Z" fill="white"/>
<path d="M89.6073 44.5508C89.5701 51.8762 83.46 57.9268 76.1755 57.8451C68.8129 57.7633 62.8663 51.7387 62.8998 44.3947C62.9332 37.047 68.9616 31.1004 76.3316 31.1413C83.709 31.1822 89.6444 37.1808 89.6073 44.5471V44.5508ZM86.608 44.5471C86.6451 38.7752 81.9994 34.07 76.2572 34.0663C70.5708 34.0626 65.9288 38.6897 65.8954 44.3947C65.8619 50.122 70.4222 54.7975 76.1049 54.8606C81.8805 54.9238 86.5708 50.319 86.608 44.5471Z" fill="#E9501D"/>
<path d="M38.8013 57.8599C39.6933 57.8599 40.1356 57.8599 40.5778 57.8599C45.3499 57.8599 50.1183 57.871 54.8904 57.8525C55.9794 57.8487 56.9383 58.068 56.9197 59.3577C56.9048 60.547 55.998 60.7923 54.9573 60.7886C48.379 60.7737 41.8006 60.7774 35.2259 60.7849C34.3971 60.7849 33.468 60.7142 33.3862 59.7479C33.3342 59.1458 33.7058 58.2947 34.1741 57.8933C39.8271 53.0989 45.5321 48.3714 51.2222 43.6216C52.0361 42.9415 52.8909 42.6627 53.6417 43.5919C54.4222 44.5545 53.8238 45.3015 53.047 45.9482C48.7766 49.5087 44.51 53.0692 40.2433 56.6297C39.8717 56.9419 39.5037 57.2578 38.805 57.8562L38.8013 57.8599Z" fill="#E9501D"/>
<path d="M113.367 57.5478C110.141 54.8495 106.915 52.1513 103.689 49.4568C102.266 48.2675 100.85 47.0744 99.4152 45.9C98.6013 45.231 98.1367 44.4468 98.9209 43.5325C99.642 42.6926 100.486 42.949 101.248 43.5845C106.975 48.3604 112.717 53.1213 118.4 57.9455C118.857 58.332 119.247 59.3132 119.065 59.7926C118.883 60.2683 117.95 60.7292 117.34 60.7366C110.717 60.8035 104.091 60.7701 97.4677 60.785C96.3974 60.785 95.5537 60.4542 95.5871 59.2723C95.6169 58.0756 96.5237 57.8488 97.5607 57.8526C102.333 57.8711 107.105 57.86 111.873 57.86C112.327 57.86 112.776 57.86 113.23 57.86C113.274 57.7559 113.319 57.6519 113.364 57.5478H113.367Z" fill="#E9501D"/>
<path d="M76.5916 37.0582C80.2599 37.0805 83.7238 40.589 83.6755 44.2387C83.6643 45.1938 83.2481 45.8925 82.2371 45.926C81.3154 45.9557 80.8471 45.3759 80.7096 44.4691C80.2636 41.5441 79.2787 40.5629 76.3092 40.0389C75.3726 39.8717 74.7631 39.4294 74.83 38.3887C74.8857 37.5116 75.5175 37.0508 76.5953 37.0582H76.5916Z" fill="#E9501D"/>
<path d="M75.8297 51.8502C72.1577 51.7685 68.8462 48.4124 68.8313 44.7552C68.8276 43.7964 69.2216 43.0791 70.2213 43.0233C71.2025 42.9676 71.682 43.5771 71.812 44.5583C72.1651 47.2825 73.3767 48.5164 76.1419 48.929C77.1082 49.0739 77.7103 49.4567 77.6843 50.4937C77.6582 51.434 77.0339 51.8762 75.8297 51.8465V51.8502Z" fill="#E9501D"/>
</svg>
