<svg width="153" height="155" viewBox="0 0 153 155" fill="none" xmlns="http://www.w3.org/2000/svg">
<path d="M142.818 108.941C142.405 111.141 142.171 113.39 141.55 115.53C137.172 130.687 127.249 140.053 111.896 143.639C111.1 143.825 110.171 143.65 109.346 143.461C102.716 141.926 96.8508 138.893 91.8594 134.255C91.1681 133.612 90.4992 133.363 89.57 133.363C65.8693 133.385 42.1648 133.381 18.4641 133.381C12.826 133.381 9.70407 130.263 9.70407 124.621C9.70407 111.36 9.70407 98.1033 9.70407 84.8425C9.70407 84.4076 9.68177 83.9728 9.72265 83.5417C9.86017 82.1405 10.9677 81.1222 12.3168 81.1296C13.666 81.137 14.7549 82.1628 14.885 83.5677C14.9259 83.9988 14.9036 84.4337 14.9036 84.8685C14.9036 98.1293 14.9036 111.386 14.9036 124.647C14.9036 127.334 15.7287 128.178 18.3563 128.178C40.5853 128.178 62.8142 128.178 85.0432 128.178H86.4666C80.862 120.146 78.8253 111.334 79.4646 101.66H77.8367C61.6323 101.66 45.4243 101.66 29.2199 101.66C28.7442 101.66 28.261 101.69 27.7927 101.619C26.4771 101.419 25.5368 100.27 25.5777 98.9767C25.6185 97.7354 26.5625 96.6724 27.8299 96.5014C28.2982 96.4383 28.7814 96.4643 29.2571 96.4643C45.376 96.4643 61.4948 96.4643 77.6137 96.4643H79.275V87.1022H77.8033C61.5989 87.1022 45.3908 87.1022 29.1865 87.1022C26.8227 87.1022 25.5851 86.2139 25.5739 84.5154C25.5628 82.8058 26.7967 81.9064 29.153 81.9064C45.3165 81.9064 61.4762 81.9064 77.6397 81.9064H79.3233C79.3717 79.9998 80.6204 79.301 82.2372 78.8104C88.1986 77.0079 94.134 75.131 100.077 73.2801C100.69 73.0906 101.233 72.9754 101.229 72.0388C101.188 61.1194 101.199 50.2001 101.196 39.2807C101.196 39.1581 101.151 39.0354 101.095 38.7492C100.649 38.7492 100.192 38.7492 99.7312 38.7492C95.2229 38.7492 90.7184 38.7567 86.2102 38.7492C81.4418 38.7381 78.3347 35.6236 78.3273 30.844C78.3162 25.9121 78.3273 20.9802 78.3273 15.8736H76.863C57.3657 15.8736 37.8647 15.8736 18.3675 15.8736C15.7175 15.8736 14.9036 16.7024 14.9036 19.3895C14.9036 32.6057 14.9036 45.8219 14.9036 59.0382C14.9036 59.4284 14.9147 59.8186 14.8999 60.2089C14.8293 61.7921 13.7737 62.9071 12.3317 62.922C10.8859 62.9369 9.78955 61.8293 9.7115 60.2609C9.69292 59.8707 9.70407 59.4804 9.70407 59.0902C9.70407 46.0895 9.70407 33.0926 9.70407 20.0919C9.70407 14.5951 11.0941 12.5844 16.2044 10.6741C38.0431 10.6741 59.8818 10.6741 81.7206 10.6741C82.278 11.1386 82.8764 11.5661 83.3893 12.0789C90.5958 19.2706 97.78 26.4808 105.005 33.6538C106.001 34.6424 106.432 35.6979 106.428 37.1065C106.391 47.9367 106.406 58.7668 106.406 69.597V71.2918C107.506 70.9498 108.473 70.5187 109.476 70.3738C110.546 70.2177 111.736 70.069 112.732 70.3738C121.875 73.1501 130.984 76.0341 140.108 78.8625C141.272 79.223 142.234 79.7656 142.81 80.8732V108.952L142.818 108.941ZM84.5786 83.5528C84.5786 90.7853 84.5675 97.9249 84.5898 105.068C84.5935 106.581 84.6678 108.097 84.8128 109.602C86.1544 123.317 96.6724 135.258 110.086 138.283C110.729 138.428 111.464 138.428 112.107 138.283C126.286 135.08 137.18 121.968 137.559 107.402C137.759 99.7423 137.596 92.0713 137.633 84.4076C137.633 83.7015 137.358 83.4376 136.745 83.2481C128.486 80.6873 120.236 78.1043 111.974 75.551C111.505 75.406 110.922 75.3429 110.465 75.4841C101.872 78.1377 93.294 80.8286 84.5749 83.5528H84.5786ZM96.9437 33.5386C92.4764 29.0712 87.9756 24.5741 83.538 20.1365C83.538 23.7751 83.5082 27.6143 83.5566 31.4499C83.5714 32.6169 84.4671 33.5051 85.649 33.52C89.4845 33.5683 93.3201 33.5386 96.9437 33.5386Z" fill="white"/>
<path d="M68.2032 46.5429C70.7825 46.5429 73.1611 46.5355 75.5397 46.5429C77.6062 46.5541 78.591 47.5092 78.5985 49.5459C78.6133 53.4446 78.6133 57.3433 78.5985 61.2421C78.591 63.2044 77.595 64.1967 75.6364 64.2153C73.2169 64.2339 70.7973 64.219 68.2069 64.219C68.2069 66.5754 68.2069 68.8536 68.2069 71.1319C68.2069 73.8004 67.3855 74.6181 64.7096 74.6181C61.2011 74.6181 57.6926 74.6181 54.1842 74.6181C51.3224 74.6181 50.5307 73.8413 50.5307 71.0241C50.5307 68.8202 50.5307 66.6125 50.5307 64.219C49.2783 64.219 48.0852 64.219 46.8922 64.219C45.5914 64.219 44.2943 64.2376 42.9935 64.2116C41.1872 64.1744 40.1503 63.1784 40.1391 61.3907C40.1131 57.3619 40.1131 53.3331 40.1391 49.3043C40.1503 47.5836 41.1909 46.5689 42.9117 46.5466C45.3795 46.5169 47.8474 46.5392 50.527 46.5392C50.527 45.9594 50.527 45.4205 50.527 44.8779C50.527 42.8858 50.5047 40.8937 50.5382 38.9016C50.5642 37.2886 51.5342 36.181 53.0543 36.1625C57.2541 36.1141 61.4575 36.1141 65.661 36.1625C67.2368 36.181 68.1846 37.3072 68.1994 39.0131C68.2217 41.4735 68.2032 43.9339 68.2032 46.5392V46.5429ZM55.7228 41.4029C55.7228 43.9599 55.7451 46.4611 55.7154 48.9587C55.6931 50.6795 54.6747 51.6792 52.954 51.735C52.0025 51.7647 51.0511 51.7424 50.0959 51.7424C48.5163 51.7424 46.9368 51.7424 45.3981 51.7424V59.0232C47.8436 59.0232 50.2148 59.0158 52.586 59.0232C54.7937 59.0307 55.7154 59.9673 55.7228 62.2084C55.7303 64.5758 55.7228 66.9433 55.7228 69.3368H62.8959C62.9442 69.1733 62.9851 69.0952 62.9851 69.0135C62.9925 66.8058 62.9962 64.5981 63.0036 62.3905C63.0111 59.8855 63.8622 59.027 66.3486 59.0232C68.6715 59.0232 70.9906 59.0232 73.306 59.0232V51.8279C73.1277 51.7907 73.0459 51.7573 72.9641 51.7573C70.8865 51.7499 68.809 51.7461 66.7314 51.7461C63.7284 51.7461 63.0036 51.0103 62.9999 47.9738C62.9999 45.7847 62.9999 43.5956 62.9999 41.4103H55.7191L55.7228 41.4029Z" fill="#E9501D"/>
<path d="M43.6441 116.218C38.6676 116.218 33.6948 116.222 28.7183 116.218C26.7559 116.218 25.5406 115.181 25.5777 113.568C25.6112 112.007 26.7968 111.026 28.7034 111.022C38.7419 111.015 48.7767 111.015 58.8153 111.022C60.7739 111.022 61.9929 112.07 61.9558 113.68C61.9186 115.244 60.7405 116.214 58.8338 116.218C53.7718 116.225 48.7098 116.218 43.6478 116.218H43.6441Z" fill="white"/>
<path d="M14.896 71.9979C14.9109 73.3916 13.755 74.5809 12.365 74.6106C10.923 74.6441 9.69651 73.425 9.71881 71.9793C9.7411 70.5856 10.923 69.426 12.3167 69.4297C13.7104 69.4334 14.8849 70.6004 14.8997 71.9942L14.896 71.9979Z" fill="white"/>
<path d="M132.645 98.6124C132.4 102.797 132.627 107.079 131.82 111.152C129.642 122.146 122.949 129.371 112.275 132.831C111.55 133.065 110.628 133.039 109.885 132.827C98.2965 129.531 89.923 118.556 89.7967 106.492C89.7372 100.902 89.7781 95.3121 89.7855 89.7261C89.7855 87.9867 90.3653 87.1876 92.0155 86.671C97.9992 84.7978 103.983 82.921 109.985 81.1073C110.68 80.8991 111.55 80.9066 112.245 81.1147C118.206 82.9135 124.149 84.7755 130.096 86.6376C131.895 87.2025 132.415 87.9644 132.419 89.8896C132.426 92.7922 132.419 95.6949 132.419 98.5976C132.493 98.6013 132.571 98.605 132.645 98.6087V98.6124ZM127.449 99.7832C127.371 99.7795 127.297 99.772 127.219 99.7683C127.219 97.3005 127.171 94.8289 127.245 92.3648C127.271 91.4617 126.985 91.0826 126.134 90.8224C121.417 89.3916 116.723 87.8938 112.011 86.4554C111.505 86.2993 110.877 86.2585 110.379 86.4071C105.503 87.8975 100.634 89.4213 95.7841 90.9971C95.4384 91.1086 95.0185 91.6773 95.0148 92.0378C94.9739 97.1035 94.8735 102.177 95.0408 107.239C95.3381 116.214 101.779 124.681 110.268 127.468C110.792 127.639 111.483 127.646 111.992 127.457C119.879 124.476 124.93 118.872 126.628 110.624C127.353 107.105 127.2 103.403 127.449 99.7832Z" fill="#E9501D"/>
<path d="M108.677 108.09C111.509 105.258 114.159 102.604 116.813 99.9504C118.537 98.2297 120.072 97.9769 121.273 99.2146C122.466 100.445 122.22 101.876 120.518 103.578C117.4 106.7 114.285 109.818 111.164 112.936C109.398 114.698 108.149 114.705 106.417 112.977C104.7 111.267 102.987 109.562 101.281 107.837C99.9394 106.481 99.8279 104.972 100.954 103.845C102.076 102.723 103.604 102.827 104.949 104.18C106.191 105.432 107.387 106.73 108.677 108.086V108.09Z" fill="#E9501D"/>
</svg>
