<svg width="153" height="155" viewBox="0 0 153 155" fill="none" xmlns="http://www.w3.org/2000/svg">
<path d="M84.9353 142.312C86.6003 138.908 87.1578 135.611 87.6633 132.326C89.7743 118.604 90.5548 104.767 91.0528 90.9117C91.1049 89.5179 91.7292 88.6706 92.781 88.652C93.7734 88.6297 94.4609 89.4325 94.5464 90.5809C94.762 93.5765 94.8698 96.5906 95.2823 99.5602C96.5943 109.011 97.9062 118.467 99.4635 127.877C100.08 131.601 101.325 135.221 102.307 138.886C102.4 139.231 102.637 139.54 103.217 139.952C103.708 138.217 104.325 136.503 104.667 134.738C106.12 127.197 106.414 119.548 106.599 111.903C107.086 91.8668 106.536 71.8418 105.562 51.8279C105.503 50.5717 105.834 49.6463 106.692 48.7209C113.587 41.2616 120.332 33.6612 126.234 25.3769C128.483 22.2215 130.337 18.7837 132.303 15.435C132.712 14.7363 132.879 13.874 133.047 13.0638C133.24 12.1161 132.887 11.54 131.842 12.0009C130.661 12.5212 129.397 12.9821 128.401 13.7625C124.131 17.1 119.894 20.4859 115.735 23.9646C109.443 29.231 103.306 34.6758 96.2523 38.9648C89.9676 42.7892 83.0436 43.5659 75.9226 43.5511C74.9377 43.5511 74.3207 43.0307 74.3096 42.0273C74.2947 40.8677 75.0157 40.47 76.1009 40.3697C79.8324 40.024 83.6048 39.8605 87.2768 39.1729C92.3648 38.2178 96.5906 35.2891 100.545 32.1411C107.146 26.8896 113.52 21.3518 120.076 16.0408C122.804 13.8294 125.714 11.8299 128.631 9.87126C129.557 9.25059 130.75 8.89008 131.865 8.72283C134.73 8.29543 136.867 10.4065 136.247 13.2385C135.79 15.3309 135.02 17.4271 134.002 19.3151C130.464 25.8786 125.773 31.6431 121.009 37.3295C117.374 41.663 113.601 45.8814 109.822 50.0923C109.075 50.9248 108.822 51.7201 108.855 52.8091C109.264 66.8541 109.84 80.8954 109.929 94.9405C109.996 105.273 109.554 115.612 109.045 125.937C108.844 130.025 107.922 134.091 107.164 138.138C106.923 139.417 106.302 140.703 105.581 141.803C104.027 144.167 101.456 144.148 100.162 141.658C99.1067 139.629 98.2407 137.41 97.7761 135.176C96.1334 127.249 94.6988 119.277 93.2419 111.609C93.0895 113.341 92.9223 115.426 92.7179 117.508C91.9857 125.023 91.3539 132.56 89.3432 139.878C88.9344 141.372 88.2877 142.866 87.4514 144.167C86.1135 146.248 83.8538 146.207 82.4266 144.174C81.8505 143.353 81.4268 142.398 81.0886 141.446C80.7504 140.495 81.0849 139.659 82.0958 139.328C83.0436 139.019 83.7051 139.491 84.0954 140.361C84.3369 140.896 84.5636 141.439 84.9427 142.32L84.9353 142.312Z" fill="#1F8B7B"/>
<path d="M66.9137 134.831C66.5718 136.258 66.3859 137.443 65.9994 138.562C65.4456 140.171 64.9402 141.851 64.0668 143.286C62.1118 146.486 58.4473 146.486 56.3325 143.375C54.7009 140.974 54.1472 138.187 53.7495 135.381C52.5713 127.07 52.8798 118.73 53.3295 110.39C53.4856 107.521 53.7309 104.656 54.0059 101.794C54.0877 100.943 53.7978 100.497 53.1288 99.9839C48.2638 96.2821 43.3616 92.625 38.6601 88.7226C36.7609 87.1505 35.226 85.0878 33.7431 83.0882C32.9737 82.0476 32.4906 80.7022 32.2044 79.4199C31.6134 76.7923 33.6278 74.1758 36.3075 73.8153C38.556 73.5106 40.6671 74.068 42.6034 75.0938C46.1974 76.9967 49.7058 79.0669 53.2626 81.0441C55.6041 82.3449 57.953 83.642 60.3316 84.8796C62.8589 86.1953 65.4345 86.2585 67.88 84.7198C70.7418 82.921 73.5441 81.0292 76.3427 79.1375C79.5278 76.9856 82.6052 74.659 85.8795 72.6595C87.459 71.6969 89.3359 71.013 91.1608 70.7082C94.8997 70.0801 97.5273 73.1278 96.639 76.796C95.9775 79.5352 94.4202 81.8283 92.5656 83.8241C89.191 87.4515 85.6788 90.9563 82.096 94.3792C81.007 95.4199 80.5053 96.349 80.4867 97.8951C80.3603 107.815 80.286 117.738 79.7917 127.643C79.5687 132.092 78.4611 136.503 77.6509 140.915C77.4725 141.885 76.9411 142.829 76.4096 143.684C74.8003 146.267 71.9831 146.426 70.3032 143.884C69.2737 142.331 68.653 140.487 67.9766 138.726C67.5306 137.57 67.3114 136.328 66.9137 134.831ZM73.0461 142.405C73.1984 142.39 73.3545 142.375 73.5069 142.364C73.8786 141.543 74.4249 140.755 74.5885 139.896C75.3058 136.128 76.1531 132.363 76.5099 128.553C77.5283 117.697 77.5431 106.8 77.2793 95.9068C77.2533 94.7769 77.6435 94.0373 78.4649 93.2754C81.8247 90.1572 85.2737 87.1059 88.3659 83.7312C90.3357 81.5793 91.9152 79.0074 93.3312 76.4392C94.2604 74.7556 93.0488 73.4399 91.1682 73.9305C89.8005 74.2873 88.3993 74.8151 87.2323 75.5956C83.4154 78.134 79.7359 80.8731 75.9339 83.4339C73.5218 85.0617 71.0391 86.6078 68.4895 88.009C65.873 89.4473 63.041 89.5923 60.3167 88.3361C57.2617 86.9238 54.2698 85.3628 51.3077 83.7647C47.9702 81.9658 44.7219 80.0035 41.3769 78.2232C40.34 77.6731 39.1358 77.3201 37.9688 77.164C35.8392 76.8815 34.9547 78.082 35.9544 79.9997C36.7386 81.4975 37.7421 82.9358 38.8905 84.1809C43.5772 89.2503 49.1112 93.32 54.8608 97.0664C56.8491 98.3634 57.5887 99.497 57.2914 102.128C56.1839 111.94 55.7788 121.815 56.563 131.69C56.8157 134.872 57.1539 138.079 58.6814 140.971C58.9973 141.565 59.6923 142.331 60.2201 142.338C60.7255 142.346 61.5172 141.55 61.703 140.959C62.4909 138.454 63.3829 135.931 63.71 133.348C64.2637 128.992 64.4236 124.584 64.7358 120.195C64.8101 119.15 65.178 118.351 66.3562 118.348C67.4303 118.344 67.8726 119.028 67.9878 120.042C68.2294 122.205 68.3929 124.387 68.8091 126.52C69.6528 130.828 70.5968 135.117 71.6152 139.387C71.8679 140.45 72.5592 141.413 73.0498 142.42L73.0461 142.405Z" fill="#E9501D"/>
<path d="M76.1938 56.3882C69.1471 55.7118 62.0818 55.1654 55.0575 54.3106C50.8763 53.8014 47.5685 51.5083 45.5281 47.8028C43.3911 43.9153 41.4399 39.9199 39.5816 35.8912C37.5449 31.4796 35.7832 26.9416 33.7502 22.53C32.9251 20.7386 31.7619 19.0884 30.6097 17.4791C30.2418 16.9662 29.4055 16.7878 28.7849 16.4534C28.4987 17.1 27.9338 17.7653 27.9821 18.386C28.1642 20.7758 28.3017 23.2138 28.8964 25.5219C30.4982 31.7509 32.1632 37.9725 34.1107 44.0974C36.2255 50.7538 35.9653 57.269 34.1405 63.918C30.4945 77.216 25.3359 89.9453 19.9468 102.597C19.1849 104.381 19.1552 105.247 20.8016 106.31C23.1877 107.848 25.7224 109.283 28.376 110.264C34.4973 112.524 40.9121 113.509 47.4124 113.903C47.55 113.91 47.6912 113.91 47.8287 113.921C49.1704 114.029 49.9695 114.72 49.8134 115.727C49.6275 116.932 48.7839 117.296 47.6763 117.188C45.1416 116.935 42.592 116.753 40.0722 116.385C34.2371 115.53 28.4652 114.315 23.1654 111.632C21.177 110.624 19.2927 109.253 17.6871 107.711C15.9998 106.09 15.7582 104.002 16.7654 101.705C21.7419 90.3356 26.4062 78.8439 29.9036 66.9173C30.8253 63.7693 31.5054 60.5471 32.2153 57.3396C33.0441 53.6045 32.3231 49.9696 31.3307 46.372C29.4055 39.4145 27.3503 32.4905 25.5886 25.4921C24.9642 23.0131 24.8787 20.3669 24.8304 17.7913C24.7969 15.8475 25.6592 14.1528 27.6513 13.4057C29.6657 12.6476 31.2898 13.5098 32.6613 14.9035C35.2517 17.5386 36.6752 20.891 38.1321 24.1913C40.5999 29.7774 42.9451 35.4229 45.4129 41.0089C46.1228 42.6108 47.0668 44.1123 47.9291 45.6435C49.7576 48.8881 52.5265 50.9211 56.2208 51.2779C62.3457 51.8688 68.4967 52.2405 74.6365 52.6642C76.0228 52.7608 77.4165 52.6865 78.8103 52.679C79.8992 52.6716 80.6648 53.151 80.6908 54.266C80.7169 55.3996 79.9215 55.8567 78.8586 55.9236C77.9814 55.9794 77.1043 56.05 76.2272 56.1169C76.2161 56.2135 76.2049 56.3064 76.1975 56.4031L76.1938 56.3882Z" fill="#1F8B7B"/>
<path d="M87.5741 8.65967C94.4164 8.68197 99.9467 14.2271 99.9318 21.0582C99.9206 27.9154 94.2565 33.5126 87.3957 33.4531C80.5758 33.3899 75.1012 27.8076 75.1384 20.9505C75.1755 14.0859 80.6873 8.64109 87.5741 8.66338V8.65967ZM96.6612 21.062C96.6723 15.9702 92.5804 11.8448 87.5109 11.8448C82.4787 11.8448 78.2975 16.0483 78.3309 21.0731C78.3644 26.0942 82.4303 30.1527 87.4515 30.1788C92.5766 30.2048 96.65 26.1723 96.6612 21.062Z" fill="#1F8B7B"/>
<path d="M48.1485 34.8804C48.1373 28.0307 53.6156 22.4967 60.4653 22.4298C67.2964 22.3629 72.9567 28.0158 72.9419 34.8878C72.927 41.7003 67.3558 47.2529 60.5284 47.2529C53.6936 47.2529 48.1596 41.7264 48.1485 34.8804ZM69.6713 34.8841C69.6861 29.7812 65.6165 25.6855 60.5284 25.6818C55.4701 25.6781 51.3224 29.8332 51.3484 34.8804C51.3745 39.8792 55.4627 43.9898 60.4578 44.0269C65.5235 44.0678 69.6564 39.9647 69.6713 34.8804V34.8841Z" fill="#1F8B7B"/>
<path d="M64.6465 81.988C59.3466 82.0029 55.0985 77.792 55.0577 72.4921C55.0168 67.1476 59.2983 62.8104 64.6205 62.8067C69.9241 62.7992 74.2911 67.1811 74.2465 72.4661C74.2019 77.7362 69.9315 81.9731 64.6465 81.988ZM70.9981 72.4215C71.0019 68.913 68.1475 66.0475 64.6428 66.0438C61.1566 66.0364 58.2577 68.9204 58.2502 72.4029C58.2428 75.8705 61.1529 78.788 64.6242 78.7954C68.1066 78.8029 70.9944 75.9151 71.0019 72.4252L70.9981 72.4215Z" fill="#E9501D"/>
<path d="M34.7018 139.93C35.1106 138.581 35.6347 137.258 35.9097 135.882C36.8054 131.389 37.6416 126.881 38.437 122.369C38.7752 120.436 39.355 119.615 40.4997 119.819C41.6518 120.027 42.0272 120.945 41.6444 122.904C40.6038 128.215 39.578 133.534 38.4296 138.822C38.1508 140.108 37.5673 141.379 36.8834 142.513C35.7648 144.371 33.6463 144.538 32.4347 142.751C31.5241 141.409 30.7065 139.792 30.5132 138.213C29.7662 132.058 29.2756 125.87 28.7107 119.693C28.6177 118.652 29.1789 117.935 30.2047 117.879C31.42 117.816 31.8883 118.663 31.9552 119.767C32.1745 123.376 32.3009 126.992 32.6279 130.59C32.8547 133.073 33.3304 135.537 33.7429 138.001C33.8507 138.651 34.1443 139.272 34.3487 139.904C34.4639 139.911 34.5829 139.919 34.6981 139.926L34.7018 139.93Z" fill="#1F8B7B"/>
<path d="M49.0368 141.896C50.0142 141.194 50.962 140.729 51.7982 141.773C52.6604 142.847 52.01 143.788 51.2816 144.616C49.8916 146.192 47.7397 146.122 46.7808 144.185C45.7699 142.141 44.9597 139.904 44.5843 137.663C43.7443 132.645 43.224 127.572 42.5847 122.521C42.4435 121.399 42.6405 120.392 44.0119 120.291C45.3648 120.195 45.6324 121.157 45.7885 122.28C46.5615 127.918 47.3606 133.552 48.2042 139.179C48.338 140.079 48.7394 140.937 49.0442 141.896H49.0368Z" fill="#1F8B7B"/>
<path d="M80.7281 66.0923C80.7281 67.7127 80.7207 69.3294 80.7281 70.9499C80.7356 72.0797 80.2784 72.9234 79.0854 72.916C77.8849 72.9085 77.4575 72.0314 77.4575 70.9201C77.4575 67.683 77.4612 64.4421 77.4575 61.205C77.4575 60.0974 77.8478 59.2723 79.0482 59.1534C80.0591 59.053 80.7133 59.8893 80.7281 61.2347C80.7467 62.8551 80.7318 64.4718 80.7318 66.0923H80.7281Z" fill="#1F8B7B"/>
</svg>
